# xmcd
# Copyright (c) 1998 CDDB Inc.
#
# Track frame offsets:
#	150
#	15436
#	29480
#	43207
#	58172
#	81079
#	101217
#	119953
#	134809
#	151251
#	171261
#	185384
#	203983
#	217207
#	227422
#	249210
#	266995
#	276833
#	294648
#	314921
#	335790
#
# Disc length: 4661 seconds
#
# Revision: 0
# Processed by: cddbd v1.4PL0 Copyright (c) Steve Scherf et al.
# Submitted via: audiograbber 1.70
#
DISCID=58123315
DTITLE=Секрет - Новая русская коллекция
DYEAR=1900
DGENRE=
TTITLE0=Я люблю буги-вуги
TTITLE1=Твой папа был прав
TTITLE2=Привет
TTITLE3=Блюз бродячих собак
TTITLE4=Ленинградское время
TTITLE5=(Мой приятель) Беспечный ездок
TTITLE6=Сидя на крыше
TTITLE7=Дай мне
TTITLE8=Песня гномов
TTITLE9=Иди домой
TTITLE10=Кончайте, папа
TTITLE11=Странные дни
TTITLE12=Убегай, крошка
TTITLE13=Мажорный рок-н-ролл
TTITLE14=Арина балерина
TTITLE15=Всё "О.К."
TTITLE16=Она не понимает
TTITLE17=Твои шаги
TTITLE18=Отказали тормоза
TTITLE19=В жарких странах
TTITLE20=Возьми меня
EXTD=
EXTT0=
EXTT1=
EXTT2=
EXTT3=
EXTT4=
EXTT5=
EXTT6=
EXTT7=
EXTT8=
EXTT9=
EXTT10=
EXTT11=
EXTT12=
EXTT13=
EXTT14=
EXTT15=
EXTT16=
EXTT17=
EXTT18=
EXTT19=
EXTT20=
PLAYORDER=
